<?xml version="1.0" standalone="no"?>
<!DOCTYPE svg PUBLIC "-//W3C//DTD SVG 20010904//EN"
 "http://www.w3.org/TR/2001/REC-SVG-20010904/DTD/svg10.dtd">
<svg version="1.0" xmlns="http://www.w3.org/2000/svg"
 width="500.000000pt" height="500.000000pt" viewBox="0 0 500.000000 500.000000"
 preserveAspectRatio="xMidYMid meet">
<metadata>
Created by potrace 1.11, written by Peter Selinger 2001-2013
</metadata>
<g transform="translate(0.000000,500.000000) scale(0.100000,-0.100000)"
fill="#000000" stroke="none">
<path d="M1803 4168 c-18 -6 -33 -14 -33 -19 0 -4 -15 -10 -32 -14 -63 -13
-138 -39 -138 -48 0 -5 -39 -7 -87 -6 -103 3 -186 -7 -228 -29 -16 -8 -46 -19
-65 -24 -19 -5 -39 -10 -45 -11 -5 -2 -25 -11 -43 -21 -18 -9 -46 -19 -62 -21
-15 -2 -39 -9 -52 -16 -12 -7 -26 -12 -30 -11 -5 1 -8 -2 -8 -7 0 -5 -21 -14
-46 -20 -42 -11 -104 -57 -104 -78 0 -12 -57 -48 -127 -80 -57 -25 -64 -32
-78 -72 -21 -62 -19 -69 15 -73 28 -3 29 -4 17 -28 -15 -29 -11 -60 6 -60 17
0 167 58 192 74 11 7 32 16 46 19 24 6 25 10 26 69 0 56 3 67 29 93 35 37 129
84 181 91 21 3 45 8 53 11 63 24 162 35 339 36 184 2 186 2 246 -26 71 -33
109 -68 137 -122 16 -32 31 -116 30 -170 0 -19 -27 -130 -32 -135 -3 -3 -14
-18 -25 -35 -21 -34 -156 -163 -189 -181 -70 -39 -164 -84 -175 -84 -7 0 -22
-5 -34 -12 -27 -15 -25 -14 -112 -33 -56 -13 -74 -14 -93 -4 -31 17 -51 -5
-87 -96 -15 -38 -38 -92 -51 -120 -13 -27 -26 -63 -30 -80 -3 -16 -13 -35 -21
-41 -7 -7 -15 -20 -17 -30 -10 -49 -30 -77 -92 -128 -54 -44 -73 -55 -97 -52
-35 4 -47 20 -47 63 0 23 -6 33 -20 38 -11 3 -20 11 -20 17 0 21 32 124 50
163 11 22 24 60 31 85 6 25 14 50 17 55 4 6 7 15 9 20 1 6 11 44 23 85 12 41
26 100 31 130 16 106 21 125 40 185 25 77 32 150 16 164 -15 12 -94 7 -157 -9
-25 -7 -51 -13 -57 -13 -7 0 -13 -4 -13 -8 0 -4 -10 -11 -22 -15 -13 -3 -45
-17 -73 -29 -135 -61 -168 -75 -181 -75 -18 0 -82 -57 -89 -79 -3 -10 -17 -24
-30 -31 -14 -7 -25 -22 -25 -33 0 -17 6 -18 54 -13 49 4 54 3 49 -12 -4 -9 -9
-19 -13 -22 -19 -16 -50 -71 -45 -81 4 -5 18 -14 31 -19 16 -6 24 -17 24 -33
0 -26 10 -28 62 -13 14 4 34 3 45 -2 13 -7 35 -2 83 21 36 16 68 34 71 39 3 5
13 6 22 2 15 -5 13 -10 -11 -34 -15 -16 -36 -38 -46 -49 -16 -18 -59 -34 -143
-57 -6 -1 -19 -18 -28 -38 -15 -32 -15 -36 0 -60 16 -24 15 -25 -7 -40 -13 -8
-36 -18 -53 -22 -16 -4 -40 -14 -52 -22 -13 -8 -23 -11 -23 -8 0 3 -17 -5 -37
-18 -21 -13 -57 -30 -80 -37 -24 -7 -43 -15 -43 -19 0 -4 -16 -15 -35 -24 -40
-19 -58 -45 -45 -66 7 -12 16 -12 52 -2 24 7 50 14 59 16 8 2 32 11 53 20 60
25 108 20 71 -8 -8 -6 -16 -22 -17 -36 -3 -24 -1 -25 49 -23 l52 2 -24 -46
c-30 -56 -45 -74 -55 -68 -4 3 -15 -10 -23 -27 -21 -42 -7 -62 37 -52 17 3 33
10 37 15 3 5 27 13 55 18 27 5 71 19 97 30 27 12 63 23 80 26 34 6 47 9 86 20
15 5 21 3 17 -3 -3 -6 7 -25 24 -43 16 -19 30 -37 30 -41 0 -14 28 -9 82 16
81 36 97 40 175 37 40 -1 78 1 85 6 7 4 20 9 28 10 8 1 25 4 37 6 12 2 30 10
40 19 10 8 33 20 51 26 18 6 46 21 62 32 17 12 35 18 41 15 11 -8 -42 -51 -75
-61 -12 -4 -28 -13 -37 -21 -10 -8 -43 -28 -75 -45 -74 -38 -86 -54 -65 -87 8
-13 12 -13 26 -1 9 8 27 15 38 17 20 3 56 19 137 59 23 11 102 36 125 40 12 1
39 11 80 29 17 8 48 20 70 28 89 33 152 59 195 80 25 13 72 31 105 41 33 10
83 28 110 39 28 11 70 26 95 33 85 25 165 56 172 67 20 33 -28 35 -113 7 -68
-23 -81 -20 -54 10 10 11 20 18 23 15 3 -3 20 5 39 16 18 11 33 18 33 16 0 -3
21 2 46 11 26 10 46 22 46 27 0 6 4 15 9 21 5 6 11 26 13 45 2 18 9 35 15 37
18 6 13 32 -6 33 -53 3 -160 -8 -177 -18 -12 -8 -23 -11 -68 -18 -40 -6 -37
24 2 32 17 3 30 8 30 12 0 3 21 17 48 31 26 13 51 30 55 37 4 7 14 13 21 13
19 0 46 34 38 48 -5 6 -17 10 -27 7 -11 -2 -37 -9 -58 -14 -28 -7 -37 -6 -34
2 4 14 91 57 127 64 30 5 92 51 85 63 -2 4 -25 14 -50 21 -25 7 -44 18 -42 23
3 10 65 34 100 38 12 2 46 15 74 28 51 24 66 40 41 40 -7 1 -28 14 -47 30 -36
31 -37 60 -1 60 11 0 20 4 20 10 0 5 11 12 25 16 37 9 30 24 -10 24 -19 0 -35
5 -35 10 0 11 -63 14 -74 3 -8 -9 -26 -12 -96 -19 -30 -4 -70 -13 -88 -22 -30
-13 -98 -19 -108 -9 -2 2 6 8 19 14 114 53 136 63 141 63 3 0 30 11 60 25 30
14 58 25 61 25 10 0 76 31 115 55 19 12 55 27 80 35 25 8 66 25 93 39 66 35
62 67 -7 41 -14 -5 -44 -11 -67 -14 -23 -3 -47 -10 -53 -16 -13 -13 -73 -13
-81 0 -3 6 -22 10 -41 10 -19 0 -34 4 -34 9 0 14 161 74 186 70 4 0 10 4 13
10 4 5 18 12 33 15 32 5 80 35 73 46 -8 14 -147 -14 -195 -40 -9 -5 -20 -7
-23 -3 -4 3 -18 -2 -31 -11 -36 -23 -46 -20 -46 13 0 20 -6 32 -18 35 -17 6
-165 -18 -183 -29 -15 -10 -156 -13 -170 -4 -10 6 -2 13 27 25 49 19 80 66 41
63 -45 -4 -76 1 -91 16 -8 8 -24 15 -35 15 -14 0 -23 8 -27 25 -5 19 -17 28
-57 40 -57 17 -69 17 -114 3z m-1053 -552 c0 -3 -4 -8 -10 -11 -5 -3 -10 -1
-10 4 0 6 5 11 10 11 6 0 10 -2 10 -4z m1325 -696 c7 -12 -34 -39 -69 -46 -20
-3 -26 0 -26 14 0 14 11 22 43 29 23 6 43 11 44 12 1 0 4 -3 8 -9z"/>
<path d="M3950 4120 c-14 -4 -44 -17 -67 -28 -23 -12 -47 -22 -54 -22 -6 0
-44 -16 -85 -35 -40 -19 -78 -35 -83 -35 -7 0 -21 -23 -21 -36 0 -2 13 -10 29
-19 22 -11 29 -20 26 -37 -11 -57 -46 -171 -80 -258 -35 -91 -39 -104 -50
-151 -2 -12 -14 -40 -26 -63 -11 -22 -23 -47 -24 -56 -5 -21 -59 -148 -79
-185 -9 -16 -16 -34 -16 -39 0 -5 -12 -33 -26 -63 -15 -29 -24 -57 -20 -60 3
-4 36 8 72 27 35 18 68 29 72 25 4 -4 1 -10 -7 -13 -7 -2 -22 -13 -32 -23 -11
-11 -27 -19 -36 -19 -9 0 -13 -3 -10 -6 4 -4 73 -8 154 -9 141 -3 320 -16 447
-33 91 -13 107 -46 77 -159 -6 -21 -25 -53 -44 -71 l-32 -31 -338 3 c-335 3
-339 2 -388 -20 -27 -13 -49 -21 -49 -18 0 6 -84 -37 -90 -47 -3 -4 -18 -9
-32 -11 -15 -2 -38 -14 -51 -26 -12 -12 -38 -27 -57 -33 -19 -7 -53 -24 -75
-38 -22 -15 -48 -30 -57 -33 -9 -4 -16 -16 -15 -26 1 -18 4 -18 52 -6 65 18
64 18 75 -11 6 -17 17 -25 33 -25 32 0 87 20 87 31 0 5 8 9 18 9 10 0 28 7 40
16 12 8 22 12 22 7 0 -4 7 0 14 10 15 19 79 28 85 12 2 -5 -6 -14 -17 -20 -30
-14 -38 -55 -14 -74 11 -9 22 -28 26 -43 7 -32 22 -34 71 -14 19 8 35 12 35 9
0 -3 8 1 18 9 16 15 138 76 193 97 14 5 31 6 38 1 15 -8 -15 -31 -92 -71 -96
-48 -112 -85 -36 -83 35 2 63 14 134 58 49 31 95 56 102 56 7 0 13 6 13 13 0
8 6 14 13 14 16 0 168 64 187 78 8 7 69 37 135 69 66 31 131 63 145 71 42 24
163 82 190 90 56 17 120 57 120 76 0 10 6 23 13 29 6 6 24 20 38 33 15 12 30
32 33 43 5 17 2 23 -19 28 -29 7 -32 18 -10 36 8 7 15 21 15 32 0 16 -5 19
-27 14 -71 -16 -73 -16 -79 9 -7 28 1 45 21 45 21 0 55 54 55 88 0 34 13 47
66 65 46 16 62 55 22 53 -13 0 -25 -3 -28 -6 -6 -6 -131 -50 -142 -50 -22 0
-3 20 40 40 26 13 54 29 62 36 8 6 44 26 80 45 36 19 72 40 80 48 13 13 11 13
-15 7 -65 -16 -136 -27 -145 -21 -15 9 0 33 25 39 13 3 25 16 29 31 7 29 39
60 81 81 42 20 81 51 74 59 -8 7 -100 -14 -113 -26 -6 -5 -24 -9 -40 -9 l-31
0 38 33 c42 37 40 47 -9 47 -18 0 -35 4 -38 8 -5 8 13 18 132 74 49 24 64 37
56 49 -6 10 -23 6 -60 -14 -17 -9 -42 -18 -55 -21 -29 -5 -54 -14 -96 -32 -17
-8 -53 -17 -80 -20 l-48 -6 39 27 c33 24 36 29 24 41 -11 12 -21 12 -42 4 -60
-23 -107 -2 -48 21 53 22 77 34 95 49 18 15 22 16 55 19 9 0 35 17 57 36 38
34 39 35 13 31 -14 -2 -35 -9 -46 -15 -11 -6 -42 -13 -69 -16 l-48 -6 55 35
c30 20 63 36 72 36 24 0 33 18 34 70 3 83 2 83 -77 53 -69 -25 -72 -26 -174
-14 -82 10 -108 10 -127 0 -12 -7 -24 -12 -26 -11 -6 5 -60 -12 -95 -30 -34
-17 -38 -17 -44 -2 -3 9 -1 24 5 33 19 25 25 41 18 48 -5 5 -92 -9 -147 -23
-9 -3 -23 1 -30 9 -9 8 -23 11 -39 7z"/>
<path d="M3625 4078 c-16 -6 -38 -14 -47 -19 -10 -5 -24 -9 -32 -9 -8 0 -21
-6 -28 -14 -8 -7 -41 -26 -73 -42 -33 -16 -62 -31 -65 -34 -3 -3 -27 -16 -54
-30 -27 -14 -60 -31 -74 -39 -13 -7 -29 -14 -36 -15 -34 -8 -146 -69 -146 -81
0 -28 -23 -64 -49 -75 -39 -16 -95 -59 -103 -79 -13 -35 6 -45 56 -31 26 7 49
10 53 7 5 -6 -79 -47 -96 -47 -4 0 -17 -9 -28 -20 -12 -10 -32 -21 -46 -22
-37 -5 -77 -39 -77 -65 0 -13 -9 -32 -20 -43 -25 -25 -26 -50 -2 -50 9 0 38 7
65 15 26 8 47 10 47 5 0 -6 -5 -10 -11 -10 -15 0 -182 -80 -189 -90 -3 -4 -16
-11 -30 -15 -14 -4 -37 -16 -52 -26 -14 -11 -31 -19 -37 -19 -6 0 -15 -9 -21
-21 -17 -31 18 -93 55 -97 38 -5 110 16 141 40 13 11 30 21 37 22 6 1 18 5 25
9 8 6 12 0 12 -21 0 -26 -7 -33 -55 -56 -58 -29 -95 -67 -95 -97 0 -23 0 -23
36 -4 26 13 30 13 41 -2 12 -16 18 -15 80 7 38 13 83 34 102 47 19 13 40 23
47 23 7 0 14 3 16 8 4 10 67 42 83 42 7 0 15 6 18 14 3 8 27 24 54 37 58 29
93 58 93 77 0 9 11 34 24 57 14 23 39 86 56 141 18 54 38 112 45 129 14 30 11
50 -6 40 -19 -12 -8 11 16 34 14 13 25 31 25 41 0 11 5 22 10 25 6 3 10 18 10
32 0 24 -1 25 -22 11 -13 -8 -50 -25 -83 -37 -33 -12 -63 -28 -67 -34 -6 -9
-8 -9 -8 1 0 6 -1 15 -2 19 -2 3 7 8 20 10 12 1 42 13 65 25 23 12 47 23 52
24 43 9 64 25 70 56 12 58 56 116 108 143 27 14 57 25 66 25 9 0 40 12 69 26
45 22 51 28 42 45 -12 21 -38 23 -85 7z m-461 -537 c-5 -5 -20 -12 -34 -16
-23 -6 -23 -5 5 14 28 19 49 21 29 2z m-178 -96 c-69 -36 -106 -46 -71 -19 28
23 97 54 118 54 10 0 -11 -16 -47 -35z"/>
<path d="M1410 3668 c-39 -5 -70 -15 -77 -24 -13 -17 -30 -112 -38 -212 l-5
-64 43 3 c62 4 216 61 280 103 57 38 78 71 81 128 1 28 -4 35 -34 50 -42 21
-156 28 -250 16z"/>
<path d="M3148 3172 c-10 -2 -18 -8 -18 -12 0 -5 -25 -21 -55 -35 -30 -13 -55
-29 -55 -35 0 -5 -7 -10 -16 -10 -9 0 -57 -25 -107 -57 -51 -31 -94 -55 -97
-55 -3 1 -12 -4 -21 -12 -9 -7 -20 -15 -25 -17 -5 -2 -40 -21 -77 -43 -54 -30
-69 -44 -74 -67 -8 -39 -6 -44 16 -44 22 0 63 -34 55 -46 -7 -12 -1 -11 33 2
15 6 29 10 31 9 2 0 16 10 33 24 16 14 48 31 69 37 22 7 40 17 40 22 0 6 3 7
6 4 4 -4 21 3 38 16 l31 22 -16 -24 c-8 -14 -23 -25 -33 -27 -10 -1 -26 -10
-35 -18 -10 -9 -44 -29 -77 -45 -70 -34 -113 -76 -96 -93 14 -14 54 2 137 54
33 21 71 43 85 48 14 6 32 15 40 20 8 6 29 19 46 30 34 22 53 57 78 143 9 31
21 57 26 57 6 0 10 6 10 14 0 7 11 35 26 61 28 53 29 82 2 77z"/>
<path d="M2970 2768 c-19 -11 -37 -23 -40 -27 -10 -13 -70 -51 -80 -51 -6 0
-15 -12 -22 -27 -28 -71 -40 -94 -45 -90 -9 9 -61 -57 -56 -70 7 -17 38 -17
55 1 8 7 30 17 49 21 19 4 40 12 48 18 7 6 20 12 29 14 9 1 18 7 20 12 2 6 8
11 14 11 5 0 22 9 37 19 15 11 39 23 54 26 42 11 61 59 34 87 -7 7 -19 27 -27
43 -19 37 -26 38 -70 13z"/>
<path d="M126 1993 c2 -120 1 -113 19 -113 12 0 15 15 16 70 1 39 2 76 3 83 1
7 16 12 41 12 38 0 40 -2 40 -30 0 -27 -3 -30 -37 -33 -30 -3 -38 -7 -38 -23
0 -16 7 -19 46 -19 42 0 46 2 59 34 17 39 11 86 -12 104 -9 6 -44 12 -78 12
l-61 0 2 -97z"/>
<path d="M378 2078 c-2 -7 -4 -53 -4 -103 l1 -90 71 -3 c69 -3 70 -2 70 23 0
24 -3 25 -53 25 l-53 0 0 60 0 60 54 0 c49 0 55 2 53 20 -1 18 -8 20 -68 20
-45 0 -68 -4 -71 -12z"/>
<path d="M600 1984 c0 -94 2 -105 17 -102 13 2 17 13 17 45 0 23 3 40 8 37 5
-3 6 -10 3 -15 -4 -5 7 -9 23 -9 29 0 62 -26 62 -48 0 -7 11 -12 25 -12 30 0
31 10 5 40 -18 21 -19 25 -5 46 21 33 19 80 -5 104 -16 16 -33 20 -85 20 l-65
0 0 -106z m122 59 c0 -5 2 -20 3 -35 2 -27 0 -28 -46 -28 l-47 0 3 33 c2 17 4
33 4 35 2 6 81 1 83 -5z"/>
<path d="M883 2082 c-21 -13 -26 -60 -9 -86 13 -21 23 -24 60 -23 50 1 61 -5
53 -28 -5 -11 -22 -15 -67 -15 -58 0 -60 -1 -58 -25 2 -23 6 -25 55 -25 69 0
100 15 105 51 8 52 -11 74 -67 77 -50 3 -75 20 -52 34 7 4 36 8 65 8 45 0 52
3 52 20 0 18 -7 20 -62 20 -35 0 -68 -4 -75 -8z"/>
<path d="M1148 2083 c-17 -4 -38 -58 -38 -95 0 -10 7 -35 16 -57 12 -32 22
-40 49 -45 52 -10 80 1 98 40 29 59 19 135 -19 153 -25 11 -73 13 -106 4z
m102 -65 c13 -25 13 -31 0 -55 -11 -20 -25 -29 -46 -31 -37 -4 -57 17 -57 58
0 41 20 62 57 58 21 -2 35 -11 46 -30z"/>
<path d="M1380 1985 c0 -98 1 -105 20 -105 18 0 20 7 21 68 1 37 3 59 6 50 2
-10 8 -18 13 -18 5 0 19 -17 31 -37 25 -42 50 -64 61 -57 5 3 8 50 8 105 0 81
-3 99 -15 99 -12 0 -15 -13 -15 -60 0 -49 -3 -58 -15 -54 -8 4 -15 11 -15 16
0 6 -13 26 -30 45 -16 18 -30 38 -30 43 0 6 -9 10 -20 10 -19 0 -20 -7 -20
-105z"/>
<path d="M1695 2056 c-8 -20 -16 -39 -17 -43 -1 -5 -14 -33 -30 -63 -34 -65
-34 -72 -7 -68 15 2 26 17 39 49 9 26 24 56 32 68 l15 22 6 -21 c4 -14 0 -23
-11 -27 -18 -7 -32 -22 -32 -35 0 -5 18 -8 39 -8 33 0 40 -4 45 -25 4 -16 13
-25 26 -25 26 0 25 12 -6 79 -68 146 -75 154 -99 97z"/>
<path d="M1909 2078 c-1 -16 -1 -169 0 -186 1 -9 18 -12 64 -10 54 3 62 5 62
23 0 17 -8 20 -47 23 l-48 3 0 80 c0 64 -3 79 -15 79 -8 0 -15 -6 -16 -12z"/>
<path d="M2125 1985 c0 -93 2 -105 18 -105 15 0 17 12 17 105 0 94 -2 105 -18
105 -16 0 -17 -11 -17 -105z"/>
<path d="M2250 2071 c0 -16 8 -20 45 -23 l46 -3 -46 -64 c-25 -36 -45 -70 -45
-77 0 -18 24 -24 91 -24 56 0 59 1 59 25 0 23 -4 25 -46 25 -44 0 -46 1 -33
19 99 136 99 141 -1 141 -63 0 -70 -2 -70 -19z"/>
<path d="M2525 1994 c-25 -53 -45 -100 -45 -105 0 -5 8 -9 18 -9 12 0 26 22
47 70 26 60 32 67 43 53 16 -22 15 -34 -2 -27 -8 3 -19 -3 -25 -15 -16 -29
-14 -31 24 -31 29 0 37 -5 45 -25 6 -16 17 -25 30 -25 24 0 22 17 -10 80 -10
19 -24 51 -31 70 -14 40 -28 60 -41 60 -5 0 -29 -43 -53 -96z"/>
<path d="M2765 1985 l0 -105 51 0 c42 0 56 5 78 26 14 15 27 35 27 45 1 11 2
29 3 42 5 65 -31 97 -112 97 l-47 0 0 -105z m110 45 c15 -17 17 -27 9 -58 -8
-34 -12 -37 -46 -40 l-38 -3 0 60 c0 60 0 61 28 61 16 0 37 -9 47 -20z"/>
<path d="M3051 2077 c-42 -21 -51 -109 -16 -164 30 -46 121 -37 144 13 12 27
14 85 5 120 -11 40 -84 57 -133 31z m91 -44 c39 -35 13 -103 -39 -103 -37 0
-54 18 -55 60 -2 52 55 78 94 43z"/>
<path d="M3298 2076 c-19 -14 -24 -62 -9 -85 5 -8 30 -14 62 -16 47 -1 54 -5
57 -23 3 -21 -1 -22 -62 -22 -64 0 -66 -1 -66 -25 0 -24 2 -25 63 -25 75 0 97
16 97 71 0 47 -15 59 -73 59 -41 0 -48 3 -45 18 2 13 15 18 60 20 49 3 56 6
55 22 -1 18 -9 20 -62 20 -34 0 -68 -6 -77 -14z"/>
<path d="M3672 1985 l0 -105 62 0 c70 0 76 3 69 31 -4 15 -14 19 -49 19 l-44
0 0 80 c0 72 -2 80 -19 80 -17 0 -19 -9 -19 -105z"/>
<path d="M3918 2076 c-48 -36 -46 -129 4 -171 30 -25 47 -29 83 -19 29 7 65
65 65 103 0 38 -23 86 -45 95 -28 10 -89 6 -107 -8z m102 -45 c11 -22 13 -61
4 -85 -7 -17 -78 -23 -88 -7 -16 25 -16 80 -1 95 23 23 72 21 85 -3z"/>
<path d="M4160 1985 c0 -87 3 -105 15 -105 12 0 15 16 15 86 l0 85 43 -3 c39
-3 42 -5 45 -35 3 -32 2 -33 -37 -33 -34 0 -41 -3 -41 -20 0 -17 7 -20 43 -20
55 0 77 22 77 78 0 54 -25 72 -102 72 l-58 0 0 -105z"/>
<path d="M4408 1985 l-3 -105 71 0 c71 0 71 0 66 25 -4 23 -9 25 -53 25 l-49
0 0 60 0 60 49 0 c40 0 50 3 54 20 5 19 0 20 -63 20 l-69 0 -3 -105z"/>
<path d="M4648 2079 c-11 -6 -18 -22 -18 -42 0 -56 10 -61 118 -66 6 -1 12
-10 12 -21 0 -18 -7 -20 -65 -20 -63 0 -65 -1 -65 -25 0 -24 2 -25 63 -25 74
0 101 19 99 71 -1 46 -18 59 -74 59 -42 0 -49 3 -46 18 2 13 15 18 61 20 49 3
57 6 57 22 0 18 -7 20 -62 20 -35 0 -71 -5 -80 -11z"/>
<path d="M420 1992 c0 -16 8 -19 45 -18 36 0 45 4 45 18 0 15 -8 18 -45 18
-37 0 -45 -3 -45 -18z"/>
<path d="M4450 1991 c0 -16 7 -19 42 -18 32 2 44 7 46 20 3 14 -4 17 -42 17
-39 0 -46 -3 -46 -19z"/>
</g>
</svg>
